HIERARCHY
ROOT Hips
{
	OFFSET 0.000000 35.082581 0.000000
	CHANNELS 6 Xposition Yposition Zposition Xrotation Yrotation Zrotation 
	JOINT Spine
	{
		OFFSET 0.000000 6.876099 0.125700
		CHANNELS 3 Xrotation Yrotation Zrotation
		JOINT Spine1
		{
			OFFSET 0.000000 5.730043 0.104720
			CHANNELS 3 Xrotation Yrotation Zrotation
			JOINT Spine1_split
			{
				OFFSET 0.000000 5.730043 0.104720
				CHANNELS 3 Xrotation Yrotation Zrotation
				JOINT Spine2
				{
					OFFSET 0.000000 5.730043 0.104720
					CHANNELS 3 Xrotation Yrotation Zrotation
					JOINT Neck
					{
						OFFSET 0.000000 10.314075 0.188496
						CHANNELS 3 Xrotation Yrotation Zrotation
						JOINT Head
						{
							OFFSET 0.000000 7.643700 -2.377400
							CHANNELS 3 Xrotation Yrotation Zrotation
							JOINT HeadTop_End
							{
								OFFSET 0.000000 43.788605 -13.619600
								CHANNELS 3 Xrotation Yrotation Zrotation
								End Site
								{
									OFFSET 0.000000 0.000000 0.000000
								}
							}
						}
					}
					JOINT LeftShoulder
					{
						OFFSET 2.196100 4.412489 0.087492
						CHANNELS 3 Xrotation Yrotation Zrotation
						JOINT LeftShoulder_split
						{
							OFFSET 2.196100 4.412489 0.087492
							CHANNELS 3 Xrotation Yrotation Zrotation
							JOINT LeftArm
							{
								OFFSET 8.771219 -2.981674 -0.026999
								CHANNELS 3 Xrotation Yrotation Zrotation
								JOINT LeftForeArm
								{
									OFFSET 8.512804 0.000000 -0.000000
									CHANNELS 3 Xrotation Yrotation Zrotation
									JOINT LeftHand
									{
										OFFSET 18.484802 0.000000 -0.000000
										CHANNELS 3 Xrotation Yrotation Zrotation
										JOINT LeftHandThumb1
										{
											OFFSET 2.499420 -1.158070 2.653252
											CHANNELS 3 Xrotation Yrotation Zrotation
											JOINT LeftHandThumb2
											{
												OFFSET 2.370079 -1.368366 1.368366
												CHANNELS 3 Xrotation Yrotation Zrotation
												JOINT LeftHandThumb3
												{
													OFFSET 2.676727 -1.545410 1.545409
													CHANNELS 3 Xrotation Yrotation Zrotation
													JOINT LeftHandThumb4
													{
														OFFSET 1.692226 -0.977005 0.977007
														CHANNELS 3 Xrotation Yrotation Zrotation
														End Site
														{
															OFFSET 0.000000 0.000000 0.000000
														}
													}
												}
											}
										}
										JOINT LeftHandIndex1
										{
											OFFSET 7.924831 -0.457527 2.345128
											CHANNELS 3 Xrotation Yrotation Zrotation
											JOINT LeftHandIndex2
											{
												OFFSET 3.643303 0.000000 0.000000
												CHANNELS 3 Xrotation Yrotation Zrotation
												JOINT LeftHandIndex3
												{
													OFFSET 3.810799 0.000000 0.000000
													CHANNELS 3 Xrotation Yrotation Zrotation
													JOINT LeftHandIndex4
													{
														OFFSET 2.403702 0.000000 0.000000
														CHANNELS 3 Xrotation Yrotation Zrotation
														End Site
														{
															OFFSET 0.000000 0.000000 0.000000
														}
													}
												}
											}
										}
										JOINT LeftHandMiddle1
										{
											OFFSET 8.563995 0.000000 -0.000000
											CHANNELS 3 Xrotation Yrotation Zrotation
											JOINT LeftHandMiddle2
											{
												OFFSET 3.861618 0.000000 0.000000
												CHANNELS 3 Xrotation Yrotation Zrotation
												JOINT LeftHandMiddle3
												{
													OFFSET 3.701603 0.000000 0.000000
													CHANNELS 3 Xrotation Yrotation Zrotation
													JOINT LeftHandMiddle4
													{
														OFFSET 2.322544 0.000000 0.000000
														CHANNELS 3 Xrotation Yrotation Zrotation
														End Site
														{
															OFFSET 0.000000 0.000000 0.000000
														}
													}
												}
											}
										}
										JOINT LeftHandRing1
										{
											OFFSET 8.426460 -0.424637 -3.286992
											CHANNELS 3 Xrotation Yrotation Zrotation
											JOINT LeftHandRing2
											{
												OFFSET 3.126408 0.000000 0.000000
												CHANNELS 3 Xrotation Yrotation Zrotation
												JOINT LeftHandRing3
												{
													OFFSET 3.085026 0.000000 0.000000
													CHANNELS 3 Xrotation Yrotation Zrotation
													JOINT LeftHandRing4
													{
														OFFSET 1.644005 0.000000 0.000000
														CHANNELS 3 Xrotation Yrotation Zrotation
														End Site
														{
															OFFSET 0.000000 0.000000 0.000000
														}
													}
												}
											}
										}
									}
								}
							}
						}
					}
					JOINT RightShoulder
					{
						OFFSET -2.196100 4.412496 0.070690
						CHANNELS 3 Xrotation Yrotation Zrotation
						JOINT RightShoulder_split
						{
							OFFSET -2.196100 4.412496 0.070690
							CHANNELS 3 Xrotation Yrotation Zrotation
							JOINT RightArm
							{
								OFFSET -8.771282 -2.981682 -0.094208
								CHANNELS 3 Xrotation Yrotation Zrotation
								JOINT RightForeArm
								{
									OFFSET -8.494598 0.000000 0.000000
									CHANNELS 3 Xrotation Yrotation Zrotation
									JOINT RightHand
									{
										OFFSET -18.483803 0.000000 0.000001
										CHANNELS 3 Xrotation Yrotation Zrotation
										JOINT RightHandThumb1
										{
											OFFSET -2.527351 -1.008072 2.575253
											CHANNELS 3 Xrotation Yrotation Zrotation
											JOINT RightHandThumb2
											{
												OFFSET -2.321518 -1.340328 1.340329
												CHANNELS 3 Xrotation Yrotation Zrotation
												JOINT RightHandThumb3
												{
													OFFSET -2.657753 -1.534454 1.534455
													CHANNELS 3 Xrotation Yrotation Zrotation
													JOINT RightHandThumb4
													{
														OFFSET -1.807510 -1.043568 1.043567
														CHANNELS 3 Xrotation Yrotation Zrotation
														End Site
														{
															OFFSET 0.000000 0.000000 0.000000
														}
													}
												}
											}
										}
										JOINT RightHandIndex1
										{
											OFFSET -8.811420 0.015533 2.887987
											CHANNELS 3 Xrotation Yrotation Zrotation
											JOINT RightHandIndex2
											{
												OFFSET -3.537502 0.000000 0.000000
												CHANNELS 3 Xrotation Yrotation Zrotation
												JOINT RightHandIndex3
												{
													OFFSET -3.356201 0.000000 0.000000
													CHANNELS 3 Xrotation Yrotation Zrotation
													JOINT RightHandIndex4
													{
														OFFSET -1.933098 0.000000 0.000000
														CHANNELS 3 Xrotation Yrotation Zrotation
														End Site
														{
															OFFSET 0.000000 0.000000 0.000000
														}
													}
												}
											}
										}
										JOINT RightHandMiddle1
										{
											OFFSET -8.178135 0.000000 0.000000
											CHANNELS 3 Xrotation Yrotation Zrotation
											JOINT RightHandMiddle2
											{
												OFFSET -3.901302 0.000000 0.000000
												CHANNELS 3 Xrotation Yrotation Zrotation
												JOINT RightHandMiddle3
												{
													OFFSET -3.909599 0.000000 0.000000
													CHANNELS 3 Xrotation Yrotation Zrotation
													JOINT RightHandMiddle4
													{
														OFFSET -2.376003 0.000000 0.000000
														CHANNELS 3 Xrotation Yrotation Zrotation
														End Site
														{
															OFFSET 0.000000 0.000000 0.000000
														}
													}
												}
											}
										}
										JOINT RightHandRing1
										{
											OFFSET -7.559013 0.014137 -2.865403
											CHANNELS 3 Xrotation Yrotation Zrotation
											JOINT RightHandRing2
											{
												OFFSET -3.449306 0.000000 0.000000
												CHANNELS 3 Xrotation Yrotation Zrotation
												JOINT RightHandRing3
												{
													OFFSET -3.362106 0.000000 0.000000
													CHANNELS 3 Xrotation Yrotation Zrotation
													JOINT RightHandRing4
													{
														OFFSET -2.076401 0.000000 0.000000
														CHANNELS 3 Xrotation Yrotation Zrotation
														End Site
														{
															OFFSET 0.000000 0.000000 0.000000
														}
													}
												}
											}
										}
									}
								}
							}
						}
					}
				}
			}
		}
	}
	JOINT LeftUpLeg
	{
		OFFSET 10.205400 -3.823500 0.155100
		CHANNELS 3 Xrotation Yrotation Zrotation
		JOINT LeftLeg
		{
			OFFSET 0.708757 -12.982077 0.567790
			CHANNELS 3 Xrotation Yrotation Zrotation
			JOINT LeftFoot
			{
				OFFSET -0.708756 -10.717838 -2.184338
				CHANNELS 3 Xrotation Yrotation Zrotation
				JOINT LeftToeBase
				{
					OFFSET 0.108149 -7.191104 7.560241
					CHANNELS 3 Xrotation Yrotation Zrotation
					JOINT LeftToe_End
					{
						OFFSET 0.070230 0.081724 4.490308
						CHANNELS 3 Xrotation Yrotation Zrotation
						End Site
						{
							OFFSET 0.000000 0.000000 0.000000
						}
					}
				}
			}
		}
	}
	JOINT RightUpLeg
	{
		OFFSET -10.205400 -3.823500 0.005500
		CHANNELS 3 Xrotation Yrotation Zrotation
		JOINT RightLeg
		{
			OFFSET -0.708756 -12.982134 0.610632
			CHANNELS 3 Xrotation Yrotation Zrotation
			JOINT RightFoot
			{
				OFFSET 0.708754 -10.717769 -1.945823
				CHANNELS 3 Xrotation Yrotation Zrotation
				JOINT RightToeBase
				{
					OFFSET -0.108140 -7.191069 7.372968
					CHANNELS 3 Xrotation Yrotation Zrotation
					JOINT RightToe_End
					{
						OFFSET -0.070227 0.081735 4.479403
						CHANNELS 3 Xrotation Yrotation Zrotation
						End Site
						{
							OFFSET 0.000000 0.000000 0.000000
						}
					}
				}
			}
		}
	}
}
MOTION
Frames: 4
Frame Time: 0.016667
-0.857788 27.080482 0.008393 10.499807 67.123759 -12.240303 1.870781 -1.802697 0.569416 2.147805 -0.574858 -0.033125 0.000000 0.000000 0.000000 2.136797 -0.620512 -0.146674 -4.452903 -10.379965 0.183235 -3.546769 -51.462347 5.883609 -0.000000 -0.000000 0.000000 1.127380 -10.640378 -5.486633 0.000000 0.000000 0.000000 -1.802088 -47.065457 -47.163149 -0.000017 -106.321887 -0.000010 -14.181011 -27.377415 4.759041 -9.674882 0.269252 1.575506 18.503621 20.929653 -3.451910 -18.184781 -25.645161 1.164892 -0.000003 -0.000001 -0.000002 -3.846442 2.878484 -61.548078 2.994982 5.108764 -60.739916 1.046322 3.343010 -34.750930 -0.000000 -0.000001 -0.000001 -2.841134 4.594557 -63.952140 4.026904 5.560378 -71.804850 2.498983 4.798417 -55.000303 0.000000 -0.000001 -0.000001 -4.005795 6.210696 -77.776867 4.605477 5.717413 -77.688088 1.644146 4.070202 -43.978229 -0.000000 -0.000002 -0.000001 0.469308 -2.168325 7.105760 0.000000 0.000000 0.000000 -29.988369 -15.740002 41.708403 -0.000002 109.347142 -0.000023 14.603144 20.324234 -39.470014 -6.752292 7.209117 -18.581260 15.979743 -27.517673 14.723429 -5.137996 21.103514 -19.354705 -0.000000 -0.000000 0.000001 -4.026034 10.918940 28.366776 3.771266 -4.572314 79.022290 0.645268 -2.367078 30.493024 -0.000000 0.000000 0.000003 -4.881341 0.185797 47.726107 2.776649 -4.261386 66.161215 0.779563 -2.581389 33.603055 -0.000001 0.000000 -0.000001 -3.940819 -1.274175 51.126397 3.609637 -4.538072 76.987338 0.576874 -2.246989 28.794110 -0.000000 0.000001 -0.000000 -11.970688 -3.590504 34.419437 58.548190 -13.199281 9.481521 -45.695383 12.942505 -20.990558 -9.492886 0.000049 0.000019 -0.000000 -0.000001 -0.000000 -40.816124 15.060273 -25.256142 50.915338 13.100979 -6.092457 -16.023950 -1.810097 31.553299 -5.169239 0.000015 -0.000011 0.000000 -0.000000 0.000000 
-0.701167 27.690033 0.009699 9.025299 65.405837 -10.568445 1.930180 -2.090846 0.399142 2.196507 -0.669197 -0.093632 0.000000 0.000000 0.000000 2.178840 -0.721578 -0.214626 -4.181045 -10.086964 0.380456 -3.435687 -49.846126 5.967147 -0.000000 -0.000000 -0.000000 1.159396 -10.584907 -4.968947 0.000000 0.000000 0.000000 -3.440717 -46.440495 -48.700529 -0.000004 -107.022275 0.000017 -13.940655 -26.498745 3.948691 -9.674880 0.269255 1.575502 18.506567 20.943351 -3.449969 -18.178451 -25.632298 1.172589 -0.000002 0.000001 -0.000000 -3.845318 2.879140 -61.562558 2.996286 5.109496 -60.754437 1.047178 3.344219 -34.765349 -0.000002 -0.000004 -0.000000 -2.840568 4.596737 -63.966374 4.028335 5.560863 -71.819630 2.500188 4.799263 -55.014776 0.000000 -0.000001 -0.000000 -4.004849 6.213160 -77.791026 4.606981 5.717728 -77.702950 1.645162 4.071256 -43.992685 0.000001 -0.000005 -0.000000 0.472925 -1.987579 7.167184 0.000000 0.000000 0.000000 -29.704810 -14.959991 41.837794 -0.000048 110.239588 0.000016 15.232223 19.900576 -39.661450 -6.752292 7.209114 -18.581263 15.985366 -27.530483 14.722632 -5.136858 21.089408 -19.359375 0.000001 -0.000000 0.000001 -4.025358 10.917534 28.381014 3.772409 -4.572535 79.036784 0.645873 -2.368090 30.507439 0.000000 0.000000 -0.000002 -4.881947 0.183414 47.740219 2.777753 -4.261868 66.176036 0.780210 -2.582370 33.617481 -0.000000 -0.000000 -0.000001 -3.941055 -1.276337 51.140587 3.610803 -4.538344 77.002105 0.577447 -2.248014 28.808556 -0.000000 0.000000 -0.000000 -10.290179 -0.901827 33.363811 55.406771 -12.935221 9.774635 -42.494486 12.623189 -21.375704 -10.899940 0.000009 -0.000008 0.000001 -0.000001 -0.000000 -40.337963 13.884370 -25.009994 45.478207 12.530020 -6.225464 -11.588510 2.010047 32.851673 -4.656323 0.000052 0.000007 0.000000 0.000001 0.000000 
-0.502280 28.374580 0.008521 7.821195 63.402727 -9.109696 1.870784 -2.366016 0.143380 2.147877 -0.743413 -0.181092 0.000000 0.000000 0.000000 2.123234 -0.800160 -0.306782 -3.798645 -9.756333 0.643418 -3.007117 -47.953136 6.067482 -0.000000 0.000000 -0.000000 1.197093 -10.412342 -4.302571 0.000000 0.000000 0.000000 -5.193351 -45.854256 -50.234132 -0.000033 -107.756029 -0.000036 -13.352816 -25.456289 3.281921 -9.674880 0.269255 1.575502 18.511329 20.965578 -3.446844 -18.168139 -25.611377 1.185095 -0.000001 -0.000006 0.000001 -3.843488 2.880184 -61.586060 2.998380 5.110650 -60.778008 1.048541 3.346200 -34.788824 0.000002 -0.000002 -0.000000 -2.839680 4.600287 -63.989495 4.030651 5.561617 -71.843557 2.502159 4.800646 -55.038320 0.000001 0.000003 0.000002 -4.003304 6.217161 -77.814043 4.609377 5.718235 -77.727095 1.646843 4.072994 -44.016177 0.000001 0.000002 0.000002 0.488558 -1.683391 7.375609 0.000000 0.000000 0.000000 -29.457223 -13.864259 41.538202 -0.000033 111.001646 -0.000014 15.563228 19.335504 -39.736094 -6.752297 7.209117 -18.581260 15.994452 -27.551286 14.721390 -5.134999 21.066486 -19.366925 0.000002 -0.000000 0.000001 -4.024289 10.915255 28.404136 3.774297 -4.572912 79.060355 0.646839 -2.369731 30.530915 0.000000 0.000000 -0.000003 -4.882936 0.179544 47.763124 2.779540 -4.262664 66.200161 0.781284 -2.583950 33.640922 0.000000 0.000001 -0.000000 -3.941470 -1.279845 51.163629 3.612703 -4.538777 77.026072 0.578363 -2.249684 28.831987 0.000001 0.000001 -0.000000 -8.610649 1.778844 32.166872 52.204597 -12.539035 9.825969 -38.509822 12.113393 -21.702545 -12.947329 -0.000003 0.000004 -0.000001 0.000000 0.000001 -39.601587 12.502526 -24.638900 39.248483 12.058535 -6.328081 -6.595047 5.892491 33.596253 -5.002371 0.000003 0.000008 -0.000000 -0.000000 -0.000000 
-0.151384 29.283878 0.014461 7.014513 60.653214 -7.901427 1.451667 -2.615867 -0.343206 1.806339 -0.774976 -0.347967 0.000000 0.000000 0.000000 1.773444 -0.829123 -0.471259 -3.055414 -9.319765 1.116650 -1.591860 -45.242954 6.221006 -0.000000 0.000000 0.000000 1.239729 -9.854051 -3.184243 0.000000 0.000000 0.000000 -7.337314 -45.581435 -51.880348 0.000015 -108.518408 0.000022 -11.745963 -23.953243 2.992346 -9.674880 0.269259 1.575504 18.520702 21.009546 -3.440674 -18.147808 -25.570043 1.209768 -0.000003 -0.000001 -0.000002 -3.839868 2.882232 -61.632472 3.002530 5.112961 -60.824590 1.051261 3.350067 -34.835194 0.000001 0.000001 0.000001 -2.837884 4.607316 -64.035182 4.035243 5.563092 -71.890862 2.506053 4.803339 -55.084834 -0.000001 0.000000 0.000000 -4.000249 6.225066 -77.859498 4.614133 5.719278 -77.774879 1.650142 4.076392 -44.062592 -0.000001 -0.000001 0.000000 0.528482 -1.104091 8.063740 0.000000 0.000000 0.000000 -29.166509 -11.793688 40.000282 -0.000014 111.367047 -0.000021 15.073736 18.358071 -39.503331 -6.752295 7.209115 -18.581260 16.012462 -27.592456 14.718931 -5.131358 21.021210 -19.381828 0.000001 0.000001 0.000003 -4.022166 10.910753 28.449828 3.778014 -4.573615 79.106964 0.648759 -2.372976 30.577282 0.000000 0.000000 0.000003 -4.884915 0.171901 47.808363 2.783077 -4.264216 66.247787 0.783362 -2.587082 33.687268 0.000000 -0.000001 0.000002 -3.942293 -1.286761 51.209176 3.616446 -4.539646 77.073426 0.580185 -2.252988 28.878340 0.000000 0.000000 0.000001 -6.869159 4.713268 30.659124 48.649057 -11.951227 9.129005 -32.623825 11.112759 -21.836077 -17.586026 0.000061 0.000012 0.000000 -0.000003 0.000000 -38.586146 10.647423 -23.730954 30.994032 11.730797 -6.560999 -0.037473 10.444691 33.277716 -8.997392 0.000044 -0.000005 -0.000000 -0.000001 -0.000000 
